/* XPM */
static char * close_unfocused_xpm[] = {
"25 25 3 1",
" 	c None",
".	c #000000",
"+	c #7F7F7F",
".........................",
".........................",
".........................",
".........................",
".........................",
".........................",
".........................",
".........................",
"..........+++++++........",
"..........+.....+........",
"..........+.....+........",
"+++++++++++.....+........",
"..........+.....+........",
"..........+.....+........",
"..........+++++++........",
".........................",
".........................",
".........................",
".........................",
".........................",
".........................",
".........................",
".........................",
".........................",
"........................."};
