/* XPM */
static char * stick_pressed_xpm[] = {
"25 25 18 1",
" 	c None",
".	c #000000",
"+	c #FFFFFF",
"@	c #0E0E0E",
"#	c #0F0F0F",
"$	c #111010",
"%	c #101010",
"&	c #101111",
"*	c #101110",
"=	c #101011",
"-	c #111110",
";	c #121212",
">	c #141414",
",	c #161615",
"'	c #161616",
")	c #151616",
"!	c #161516",
"~	c #171717",
".........................",
".........................",
".........................",
".........................",
".........................",
".........................",
".........................",
".........................",
".........................",
".........................",
".........................",
"..........+++++++++++++++",
".........................",
".........................",
".........................",
".........................",
".........................",
".........................",
"@@@@@@@@@@@@@@@@@@@@@@@@@",
"#########################",
"$%%&**%%$%=%=&%%*%%$%$-%%",
";;;;;;;;;;;;;;;;;;;;;;;;;",
">>>>>>>>>>>>>>>>>>>>>>>>>",
",''')'!)!)'')')'!')'')''!",
"~~~~~~~~~~~~~~~~~~~~~~~~~"};
